<!-- Generated by IcoMoon.io -->
<svg version="1.1" xmlns="http://www.w3.org/2000/svg" width="32" height="32" viewBox="0 0 32 32"><title>icon-tik-tok</title>
<path d="M24.973 8.107c-0.187-0.093-0.373-0.2-0.547-0.32-0.507-0.333-0.973-0.733-1.4-1.187-1.040-1.187-1.427-2.4-1.573-3.24-0.107-0.693-0.053-1.147-0.053-1.147h-4.733v18.307c0 0.24 0 0.493-0.013 0.733 0 0.027 0 0.053 0 0.093 0 0.013 0 0.027 0 0.040v0.013c-0.107 1.333-0.853 2.533-2.027 3.187-0.6 0.333-1.267 0.52-1.96 0.52-2.2 0-4-1.8-4-4.013s1.787-4.013 4-4.013c0.413 0 0.827 0.067 1.227 0.2v-4.827c-2.44-0.32-4.893 0.4-6.773 1.987-0.813 0.707-1.507 1.56-2.027 2.493-0.2 0.347-0.96 1.733-1.040 3.973-0.053 1.267 0.333 2.587 0.52 3.133v0.013c0.12 0.32 0.56 1.413 1.28 2.347 0.587 0.747 1.28 1.4 2.053 1.933v-0.013l0.013 0.013c2.293 1.56 4.827 1.453 4.827 1.453 0.44-0.013 1.92 0 3.587-0.787 1.853-0.88 2.907-2.187 2.907-2.187 0.68-0.787 1.213-1.68 1.587-2.64 0.427-1.12 0.573-2.48 0.573-3.013v-9.72c0.053 0.040 0.827 0.547 0.827 0.547s1.107 0.707 2.827 1.16c1.24 0.333 2.893 0.4 2.893 0.4v-4.707c-0.587 0.053-1.76-0.12-2.973-0.733z"></path>
</svg>
