<!-- Generated by IcoMoon.io -->
<svg version="1.1" xmlns="http://www.w3.org/2000/svg" width="32" height="32" viewBox="0 0 32 32"><title>icon-linc</title>
<path d="M22.752 9.172c-3.035 0-4.393 1.66-5.153 2.823v-2.42h-5.716c0.075 1.605 0 17.095 0 17.095h5.716v-9.546c0-0.51 0.037-1.020 0.187-1.385 0.413-1.020 1.353-2.078 2.933-2.078 2.070 0 2.898 1.568 2.898 3.865v9.144h5.716v-9.801c0-5.253-2.82-7.696-6.581-7.696z"></path>
<path d="M8.72 9.574h-5.716v17.095h5.716v-17.095z"></path>
<path d="M5.9 1.333c-1.955 0-3.233 1.278-3.233 2.953 0 1.64 1.24 2.955 3.16 2.955h0.037c1.993 0 3.235-1.313 3.235-2.955-0.040-1.678-1.245-2.953-3.2-2.953z"></path>
</svg>
