<!-- Generated by IcoMoon.io -->
<svg version="1.1" xmlns="http://www.w3.org/2000/svg" width="32" height="32" viewBox="0 0 32 32"><title>icon-inst</title>
<path d="M21.333 4h-10.667c-3.682 0-6.667 2.985-6.667 6.667v10.667c0 3.682 2.985 6.667 6.667 6.667h10.667c3.682 0 6.667-2.985 6.667-6.667v-10.667c0-3.682-2.985-6.667-6.667-6.667zM25.667 21.333c-0.007 2.39-1.943 4.326-4.333 4.333h-10.667c-2.39-0.007-4.326-1.943-4.333-4.333v-10.667c0.007-2.39 1.943-4.326 4.333-4.333h10.667c2.39 0.007 4.326 1.943 4.333 4.333v10.667zM23.667 9.667c0 0.736-0.597 1.333-1.333 1.333s-1.333-0.597-1.333-1.333c0-0.736 0.597-1.333 1.333-1.333s1.333 0.597 1.333 1.333zM16 10c-3.314 0-6 2.686-6 6s2.686 6 6 6c3.314 0 6-2.686 6-6 0.004-1.592-0.627-3.121-1.753-4.247s-2.654-1.757-4.247-1.753zM16 19.667c-2.025 0-3.667-1.642-3.667-3.667s1.642-3.667 3.667-3.667c2.025 0 3.667 1.642 3.667 3.667s-1.642 3.667-3.667 3.667z"></path>
</svg>
