<!-- Generated by IcoMoon.io -->
<svg version="1.1" xmlns="http://www.w3.org/2000/svg" width="32" height="32" viewBox="0 0 32 32"><title>icon-tviter</title>
<path d="M29.294 8.618c-0.688 0.918-1.52 1.718-2.463 2.371 0 0.24 0 0.479 0 0.733 0.008 4.354-1.731 8.529-4.827 11.589s-7.29 4.749-11.641 4.688c-2.516 0.008-4.999-0.566-7.256-1.678-0.122-0.053-0.2-0.173-0.2-0.306v-0.146c0-0.191 0.155-0.346 0.346-0.346 2.473-0.081 4.857-0.939 6.816-2.451-2.238-0.045-4.252-1.371-5.179-3.41-0.047-0.111-0.032-0.239 0.038-0.337s0.187-0.152 0.308-0.143c0.68 0.068 1.367 0.005 2.024-0.186-2.471-0.513-4.327-2.564-4.593-5.075-0.009-0.12 0.045-0.237 0.142-0.308s0.226-0.085 0.337-0.038c0.663 0.293 1.379 0.447 2.103 0.453-2.165-1.421-3.1-4.124-2.277-6.58 0.085-0.239 0.289-0.415 0.538-0.464s0.504 0.036 0.674 0.224c2.922 3.109 6.936 4.962 11.196 5.168-0.109-0.435-0.163-0.883-0.16-1.332 0.040-2.354 1.496-4.451 3.688-5.309s4.684-0.308 6.31 1.393c1.109-0.211 2.181-0.584 3.182-1.106 0.073-0.046 0.166-0.046 0.24 0 0.046 0.073 0.046 0.166 0 0.24-0.485 1.11-1.304 2.042-2.343 2.664 0.91-0.106 1.804-0.32 2.663-0.639 0.072-0.049 0.167-0.049 0.24 0 0.061 0.028 0.106 0.081 0.124 0.145s0.007 0.133-0.031 0.188z"></path>
</svg>
