<svg aria-hidden="true" style="position: absolute; width: 0; height: 0; overflow: hidden;" version="1.1" xmlns="http://www.w3.org/2000/svg" xmlns:xlink="http://www.w3.org/1999/xlink">
<defs>
<symbol id="icon-icon-tik-tok" viewBox="0 0 32 32">
<path d="M24.973 8.107c-0.187-0.093-0.373-0.2-0.547-0.32-0.507-0.333-0.973-0.733-1.4-1.187-1.040-1.187-1.427-2.4-1.573-3.24-0.107-0.693-0.053-1.147-0.053-1.147h-4.733v18.307c0 0.24 0 0.493-0.013 0.733 0 0.027 0 0.053 0 0.093 0 0.013 0 0.027 0 0.040v0.013c-0.107 1.333-0.853 2.533-2.027 3.187-0.6 0.333-1.267 0.52-1.96 0.52-2.2 0-4-1.8-4-4.013s1.787-4.013 4-4.013c0.413 0 0.827 0.067 1.227 0.2v-4.827c-2.44-0.32-4.893 0.4-6.773 1.987-0.813 0.707-1.507 1.56-2.027 2.493-0.2 0.347-0.96 1.733-1.040 3.973-0.053 1.267 0.333 2.587 0.52 3.133v0.013c0.12 0.32 0.56 1.413 1.28 2.347 0.587 0.747 1.28 1.4 2.053 1.933v-0.013l0.013 0.013c2.293 1.56 4.827 1.453 4.827 1.453 0.44-0.013 1.92 0 3.587-0.787 1.853-0.88 2.907-2.187 2.907-2.187 0.68-0.787 1.213-1.68 1.587-2.64 0.427-1.12 0.573-2.48 0.573-3.013v-9.72c0.053 0.040 0.827 0.547 0.827 0.547s1.107 0.707 2.827 1.16c1.24 0.333 2.893 0.4 2.893 0.4v-4.707c-0.587 0.053-1.76-0.12-2.973-0.733z"></path>
</symbol>
<symbol id="icon-icon-inst" viewBox="0 0 32 32">
<path d="M21.333 4h-10.667c-3.682 0-6.667 2.985-6.667 6.667v10.667c0 3.682 2.985 6.667 6.667 6.667h10.667c3.682 0 6.667-2.985 6.667-6.667v-10.667c0-3.682-2.985-6.667-6.667-6.667zM25.667 21.333c-0.007 2.39-1.943 4.326-4.333 4.333h-10.667c-2.39-0.007-4.326-1.943-4.333-4.333v-10.667c0.007-2.39 1.943-4.326 4.333-4.333h10.667c2.39 0.007 4.326 1.943 4.333 4.333v10.667zM23.667 9.667c0 0.736-0.597 1.333-1.333 1.333s-1.333-0.597-1.333-1.333c0-0.736 0.597-1.333 1.333-1.333s1.333 0.597 1.333 1.333zM16 10c-3.314 0-6 2.686-6 6s2.686 6 6 6c3.314 0 6-2.686 6-6 0.004-1.592-0.627-3.121-1.753-4.247s-2.654-1.757-4.247-1.753zM16 19.667c-2.025 0-3.667-1.642-3.667-3.667s1.642-3.667 3.667-3.667c2.025 0 3.667 1.642 3.667 3.667s-1.642 3.667-3.667 3.667z"></path>
</symbol>
<symbol id="icon-icom-facebook" viewBox="0 0 32 32">
<path d="M29.333 16c0 6.654-4.875 12.172-11.25 13.172v-9.318h3.107l0.591-3.854h-3.698v-2.5c0-1.055 0.516-2.083 2.172-2.083h1.682v-3.281c0 0-1.526-0.26-2.984-0.26-3.047 0-5.036 1.846-5.036 5.188v2.938h-3.385v3.854h3.385v9.318c-6.375-1-11.25-6.518-11.25-13.172 0-7.365 5.969-13.333 13.333-13.333s13.333 5.969 13.333 13.333z"></path>
</symbol>
<symbol id="icon-icon-linc" viewBox="0 0 32 32">
<path d="M22.752 9.172c-3.035 0-4.393 1.66-5.153 2.823v-2.42h-5.716c0.075 1.605 0 17.095 0 17.095h5.716v-9.546c0-0.51 0.037-1.020 0.187-1.385 0.413-1.020 1.353-2.078 2.933-2.078 2.070 0 2.898 1.568 2.898 3.865v9.144h5.716v-9.801c0-5.253-2.82-7.696-6.581-7.696z"></path>
<path d="M8.72 9.574h-5.716v17.095h5.716v-17.095z"></path>
<path d="M5.9 1.333c-1.955 0-3.233 1.278-3.233 2.953 0 1.64 1.24 2.955 3.16 2.955h0.037c1.993 0 3.235-1.313 3.235-2.955-0.040-1.678-1.245-2.953-3.2-2.953z"></path>
</symbol>
<symbol id="icon-icon-tviter" viewBox="0 0 32 32">
<path d="M29.294 8.618c-0.688 0.918-1.52 1.718-2.463 2.371 0 0.24 0 0.479 0 0.733 0.008 4.354-1.731 8.529-4.827 11.589s-7.29 4.749-11.641 4.688c-2.516 0.008-4.999-0.566-7.256-1.678-0.122-0.053-0.2-0.173-0.2-0.306v-0.146c0-0.191 0.155-0.346 0.346-0.346 2.473-0.081 4.857-0.939 6.816-2.451-2.238-0.045-4.252-1.371-5.179-3.41-0.047-0.111-0.032-0.239 0.038-0.337s0.187-0.152 0.308-0.143c0.68 0.068 1.367 0.005 2.024-0.186-2.471-0.513-4.327-2.564-4.593-5.075-0.009-0.12 0.045-0.237 0.142-0.308s0.226-0.085 0.337-0.038c0.663 0.293 1.379 0.447 2.103 0.453-2.165-1.421-3.1-4.124-2.277-6.58 0.085-0.239 0.289-0.415 0.538-0.464s0.504 0.036 0.674 0.224c2.922 3.109 6.936 4.962 11.196 5.168-0.109-0.435-0.163-0.883-0.16-1.332 0.040-2.354 1.496-4.451 3.688-5.309s4.684-0.308 6.31 1.393c1.109-0.211 2.181-0.584 3.182-1.106 0.073-0.046 0.166-0.046 0.24 0 0.046 0.073 0.046 0.166 0 0.24-0.485 1.11-1.304 2.042-2.343 2.664 0.91-0.106 1.804-0.32 2.663-0.639 0.072-0.049 0.167-0.049 0.24 0 0.061 0.028 0.106 0.081 0.124 0.145s0.007 0.133-0.031 0.188z"></path>
</symbol>
</defs>
</svg>
